<?xml version="1.0"?>
<svg xmlns="http://www.w3.org/2000/svg" xmlns:xlink="http://www.w3.org/1999/xlink" version="1.1" id="Capa_1" x="0px" y="0px" viewBox="0 0 511.996 511.996" style="enable-background:new 0 0 511.996 511.996;" xml:space="preserve" width="512px" height="512px" class=""><g><rect x="189.58" y="235.18" style="fill:#1C3664" width="209.98" height="58.796" data-original="#FBB540" class="" data-old_color="#1c3664"/><rect x="189.58" y="235.18" style="fill:#0199CD" width="209.98" height="16.799" data-original="#EA9D2D" class="" data-old_color="#0199cd"/><g>
	<rect x="214.78" y="176.39" style="fill:#1C3664" width="209.98" height="58.796" data-original="#D68F29" class="" data-old_color="#1c3664"/>
	<rect x="214.78" y="58.796" style="fill:#1C3664" width="209.98" height="58.796" data-original="#D68F29" class="" data-old_color="#1c3664"/>
</g><rect x="214.78" y="58.796" style="fill:#0199CD" width="184.79" height="16.799" data-original="#B47923" class="" data-old_color="#0199cd"/><g>
	<rect x="189.58" y="117.59" style="fill:#1C3664" width="209.98" height="58.796" data-original="#FBB540" class="" data-old_color="#1c3664"/>
	<rect x="189.58" style="fill:#1C3664" width="209.98" height="58.796" data-original="#FBB540" class="" data-old_color="#1c3664"/>
</g><g>
	<rect x="231.58" y="235.18" style="fill:#0199CD" width="16.799" height="58.796" data-original="#EA9D2D" class="" data-old_color="#0199cd"/>
	<rect x="273.57" y="235.18" style="fill:#0199CD" width="16.799" height="58.796" data-original="#EA9D2D" class="" data-old_color="#0199cd"/>
</g><g>
	<rect x="256.78" y="58.796" style="fill:#0199CD" width="16.799" height="58.796" data-original="#B47923" class="" data-old_color="#0199cd"/>
	<rect x="365.97" y="58.796" style="fill:#0199CD" width="16.799" height="58.796" data-original="#B47923" class="" data-old_color="#0199cd"/>
	<rect x="214.78" y="176.39" style="fill:#0199CD" width="209.98" height="16.799" data-original="#B47923" class="" data-old_color="#0199cd"/>
</g><g>
	<rect x="189.58" y="117.59" style="fill:#0199CD" width="209.98" height="16.799" data-original="#EA9D2D" class="" data-old_color="#0199cd"/>
	<rect x="273.57" y="117.59" style="fill:#0199CD" width="16.799" height="58.796" data-original="#EA9D2D" class="" data-old_color="#0199cd"/>
	<rect x="231.58" style="fill:#0199CD" width="16.799" height="58.796" data-original="#EA9D2D" class="" data-old_color="#0199cd"/>
	<rect x="273.57" style="fill:#0199CD" width="16.799" height="58.796" data-original="#EA9D2D" class="" data-old_color="#0199cd"/>
	<rect x="231.58" y="117.59" style="fill:#0199CD" width="16.799" height="58.796" data-original="#EA9D2D" class="" data-old_color="#0199cd"/>
</g><g>
	<rect x="256.78" y="176.39" style="fill:#0199CD" width="16.799" height="58.796" data-original="#B47923" class="" data-old_color="#0199cd"/>
	<rect x="365.97" y="176.39" style="fill:#0199CD" width="16.799" height="58.796" data-original="#B47923" class="" data-old_color="#0199cd"/>
</g><path style="fill:#F6BB92" d="M502.937,301.571c-5.149-11.423-13.909-19.697-25.332-23.913c-13.725-5.073-30.464-3.78-46.331,3.687  l-133.222,71.428h-52.387c5.14-7.039,8.307-15.707,8.307-25.198c0-23.157-18.168-41.997-40.502-41.997h-90.537  c-21.393,0-42.534,5.602-61.173,16.228l-40.166,23.249l-16.799,8.819v169.709c0,6.862,7.778,10.827,13.338,6.795l3.461-2.511  c32.094-23.14,75.997-37.503,115.374-37.503h161.805c0,0,0.932,0,1.403,0c1.453,0,2.931-0.378,4.275-1.176l182.678-108.226  C505.725,347.49,512.377,322.51,502.937,301.571z" data-original="#F6BB92" class=""/><path style="fill:#F6BB92" d="M136.968,445.863h161.805c0,0,0.932,0,1.403,0c1.453,0,2.931-0.378,4.275-1.176l182.678-108.226  c9.399-6.812,15.715-16.564,18.479-27.239c-0.672-2.587-1.545-5.157-2.671-7.66c-5.149-11.423-13.909-19.697-25.332-23.913  c-13.725-5.073-30.464-3.78-46.331,3.687l-133.222,71.437h-52.387c5.14-7.039,8.307-15.707,8.307-25.198  c0-23.157-18.168-41.997-40.502-41.997h-90.537c-21.393,0-42.534,5.602-61.173,16.228l-40.166,23.249l-16.799,8.819v161.688  l16.799-12.196C53.688,460.226,97.592,445.863,136.968,445.863z" data-original="#FDC9A6" class="active-path" data-old_color="#F4F2EE"/></g> </svg>
