<!-- Generator: Adobe Illustrator 21.1.0, SVG Export Plug-In . SVG Version: 6.00 Build 0)  -->
<svg version="1.1" id="Layer_1" 
    xmlns="http://www.w3.org/2000/svg" 
    xmlns:xlink="http://www.w3.org/1999/xlink" x="0px" y="0px" viewBox="0 0 980 77" style="enable-background:new 0 0 980 77;" xml:space="preserve">
    <style type="text/css">
	.st0{fill:#1B2E48;}
	.st1{enable-background:new    ;}
	.st2{fill:#FFFFFF;}
	.st3{fill:url(#path-4_3_);}
	.st4{fill:url(#path-4_4_);stroke:#979797;stroke-linecap:square;}
	.st5{fill:none;stroke:#1B2E48;stroke-linecap:square;}
	.st6{fill:url(#path-5_3_);}
	.st7{fill:url(#path-5_4_);stroke:#979797;stroke-linecap:square;}
    </style>
    <g>
        <rect id="path-1_1_" x="293" y="-1" class="st0" width="392" height="77"/>
    </g>
    <title>3 Easy Steps header</title>
    <desc>Created with Sketch.</desc>
    <g id="Home:-Desktop-Revised">
        <g id="homepage_x5F_4_x2F_4_x2F_2017_x5F_ExecutiveReview" transform="translate(-328.000000, -1025.000000)">
            <g id="_x33_-Easy-Steps-header" transform="translate(329.000000, 1025.000000)">
                <g class="st1">
                    <path class="st2" d="M401,33.2v6.1h-15.3v6.3h13.8v5.9h-13.8v6.4h15.8V64h-22.7V33.2H401z"/>
                    <path class="st2" d="M429.5,64l-2.9-6.6h-12.9l-2.9,6.6h-7.3l13.3-30.8h6.6L436.8,64H429.5z M420.2,42.4l-3.9,8.9h7.7
					L420.2,42.4z"/>
                    <path class="st2" d="M447.4,39.4c-0.7,0.5-1,1.3-1,2.2c0,0.9,0.4,1.6,1.2,2.1s2.7,1.2,5.6,1.9s5.2,1.8,6.8,3.2s2.4,3.5,2.4,6.3
					s-1,5-3.1,6.7c-2.1,1.7-4.8,2.6-8.2,2.6c-4.9,0-9.3-1.8-13.2-5.4l4.1-5c3.3,2.9,6.4,4.4,9.2,4.4c1.3,0,2.3-0.3,3-0.8
					c0.7-0.5,1.1-1.3,1.1-2.2c0-0.9-0.4-1.7-1.1-2.2c-0.8-0.5-2.3-1.1-4.5-1.7c-3.6-0.9-6.2-2-7.9-3.3c-1.7-1.4-2.5-3.5-2.5-6.4
					c0-2.9,1-5.2,3.1-6.8c2.1-1.6,4.7-2.4,7.9-2.4c2.1,0,4.1,0.4,6.2,1.1c2.1,0.7,3.8,1.7,5.4,3l-3.5,5c-2.7-2-5.4-3-8.3-3
					C448.9,38.6,448,38.8,447.4,39.4z"/>
                    <path class="st2" d="M481.3,64h-6.9V51.9l-10.6-18.6h7.4l6.6,11.4l6.6-11.4h7.4l-10.6,18.6V64z"/>
                    <path class="st2" d="M514,39.4c-0.7,0.5-1,1.3-1,2.2c0,0.9,0.4,1.6,1.2,2.1s2.7,1.2,5.6,1.9s5.2,1.8,6.8,3.2s2.4,3.5,2.4,6.3
					s-1,5-3.1,6.7c-2.1,1.7-4.8,2.6-8.2,2.6c-4.9,0-9.3-1.8-13.2-5.4l4.1-5c3.3,2.9,6.4,4.4,9.2,4.4c1.3,0,2.3-0.3,3-0.8
					c0.7-0.5,1.1-1.3,1.1-2.2c0-0.9-0.4-1.7-1.1-2.2c-0.8-0.5-2.3-1.1-4.5-1.7c-3.6-0.9-6.2-2-7.9-3.3c-1.7-1.4-2.5-3.5-2.5-6.4
					c0-2.9,1-5.2,3.1-6.8c2.1-1.6,4.7-2.4,7.9-2.4c2.1,0,4.1,0.4,6.2,1.1c2.1,0.7,3.8,1.7,5.4,3l-3.5,5c-2.7-2-5.4-3-8.3-3
					C515.6,38.6,514.7,38.8,514,39.4z"/>
                    <path class="st2" d="M547.7,39.2V64h-6.9V39.2h-8.7v-5.9h24.3v5.9H547.7z"/>
                    <path class="st2" d="M583.6,33.2v6.1h-15.3v6.3H582v5.9h-13.8v6.4H584V64h-22.7V33.2H583.6z"/>
                    <path class="st2" d="M611.4,36c2.2,1.8,3.2,4.6,3.2,8.4s-1.1,6.6-3.3,8.3c-2.2,1.8-5.6,2.6-10.1,2.6H597V64h-6.9V33.2H601
					C605.8,33.2,609.2,34.2,611.4,36z M606.3,48.1c0.8-0.9,1.2-2.3,1.2-4c0-1.8-0.5-3-1.6-3.8c-1.1-0.7-2.7-1.1-5-1.1H597v10.3h4.6
					C603.9,49.5,605.5,49,606.3,48.1z"/>
                    <path class="st2" d="M627.1,39.4c-0.7,0.5-1,1.3-1,2.2c0,0.9,0.4,1.6,1.2,2.1s2.7,1.2,5.6,1.9s5.2,1.8,6.8,3.2s2.4,3.5,2.4,6.3
					s-1,5-3.1,6.7c-2.1,1.7-4.8,2.6-8.2,2.6c-4.9,0-9.3-1.8-13.2-5.4l4.1-5c3.3,2.9,6.4,4.4,9.2,4.4c1.3,0,2.3-0.3,3-0.8
					c0.7-0.5,1.1-1.3,1.1-2.2c0-0.9-0.4-1.7-1.1-2.2c-0.8-0.5-2.3-1.1-4.5-1.7c-3.6-0.9-6.2-2-7.9-3.3c-1.7-1.4-2.5-3.5-2.5-6.4
					c0-2.9,1-5.2,3.1-6.8c2.1-1.6,4.7-2.4,7.9-2.4c2.1,0,4.1,0.4,6.2,1.1c2.1,0.7,3.8,1.7,5.4,3l-3.5,5c-2.7-2-5.4-3-8.3-3
					C628.7,38.6,627.8,38.8,627.1,39.4z"/>
                </g>
                <g class="st1">
                    <path class="st2" d="M340.3,39.1v-5.9h18.8V38l-6.3,7.2c2.5,0.4,4.4,1.4,5.7,3.1c1.3,1.7,2,3.6,2,5.7c0,3.2-1.1,5.8-3.3,7.6
					c-2.2,1.8-5,2.8-8.4,2.8s-6.8-1.2-10.3-3.6l2.8-5.5c2.9,2.1,5.5,3.1,7.8,3.1c1.4,0,2.5-0.3,3.4-1c0.9-0.7,1.3-1.7,1.3-2.9
					c0-1.3-0.5-2.3-1.5-3c-1-0.7-2.4-1.1-4.3-1.1c-1,0-2.3,0.3-4.1,0.8V46l5.9-7H340.3z"/>
                </g>
                <g class="st1">
                    <path class="st2" d="M405.3,14.2l-3.8,7.6h-1.9l-3.8-7.6V23h-3.1V9h4.2l3.6,7.7l3.6-7.7h4.2v14h-3.1V14.2z"/>
                    <path class="st2" d="M424.9,9v2.8h-7v2.9h6.3v2.7h-6.3v2.9h7.2V23h-10.3V9H424.9z"/>
                    <path class="st2" d="M443.3,14.2l-3.8,7.6h-1.9l-3.8-7.6V23h-3.1V9h4.2l3.6,7.7l3.6-7.7h4.2v14h-3.1V14.2z"/>
                    <path class="st2" d="M458.9,23h-6.1V9h5.4c0.9,0,1.8,0.1,2.4,0.3s1.2,0.5,1.6,0.9c0.6,0.7,0.9,1.5,0.9,2.4
					c0,1.1-0.4,1.9-1.1,2.4c-0.2,0.2-0.4,0.3-0.5,0.3c-0.1,0-0.3,0.1-0.5,0.2c0.9,0.2,1.6,0.6,2.1,1.2s0.8,1.3,0.8,2.2
					c0,1-0.3,1.8-1,2.6C462.1,22.6,460.8,23,458.9,23z M455.9,14.7h1.5c0.9,0,1.5-0.1,1.9-0.3s0.6-0.6,0.6-1.2c0-0.6-0.2-1-0.6-1.2
					s-1-0.3-2-0.3h-1.5V14.7z M455.9,20.4h2.1c0.9,0,1.6-0.1,2-0.3c0.4-0.2,0.7-0.7,0.7-1.3c0-0.6-0.2-1.1-0.7-1.3
					c-0.5-0.2-1.2-0.3-2.3-0.3h-1.8V20.4z"/>
                    <path class="st2" d="M479.5,9v2.8h-7v2.9h6.3v2.7h-6.3v2.9h7.2V23h-10.3V9H479.5z"/>
                    <path class="st2" d="M496.7,13.7c0,2.2-0.9,3.7-2.7,4.3l3.5,5h-3.8l-3.1-4.5h-2.2V23h-3.1V9h5.3c2.2,0,3.7,0.4,4.7,1.1
					S496.7,12,496.7,13.7z M493,15.3c0.4-0.3,0.6-0.9,0.6-1.7c0-0.8-0.2-1.3-0.6-1.5c-0.4-0.3-1.1-0.4-2.1-0.4h-2.3v4.1h2.3
					C491.9,15.8,492.6,15.7,493,15.3z"/>
                    <path class="st2" d="M506.1,11.8c-0.3,0.2-0.5,0.6-0.5,1c0,0.4,0.2,0.7,0.5,1c0.4,0.2,1.2,0.5,2.5,0.9c1.3,0.3,2.4,0.8,3.1,1.5
					s1.1,1.6,1.1,2.9c0,1.3-0.5,2.3-1.4,3c-0.9,0.8-2.2,1.2-3.7,1.2c-2.2,0-4.2-0.8-6-2.5l1.9-2.3c1.5,1.3,2.9,2,4.2,2
					c0.6,0,1-0.1,1.3-0.4c0.3-0.2,0.5-0.6,0.5-1s-0.2-0.8-0.5-1c-0.3-0.2-1-0.5-2.1-0.8c-1.6-0.4-2.8-0.9-3.6-1.5
					c-0.8-0.6-1.1-1.6-1.1-2.9c0-1.3,0.5-2.3,1.4-3.1c1-0.7,2.1-1.1,3.6-1.1c0.9,0,1.9,0.2,2.8,0.5c0.9,0.3,1.7,0.8,2.4,1.4
					l-1.6,2.3c-1.2-0.9-2.5-1.4-3.8-1.4C506.8,11.4,506.4,11.6,506.1,11.8z"/>
                    <path class="st2" d="M527.2,9h3.1v14h-3.1v-5.5h-5.6V23h-3.1V9h3.1v5.8h5.6V9z"/>
                    <path class="st2" d="M536.6,9h3.1v14h-3.1V9z"/>
                    <path class="st2" d="M555.7,10.3c1,0.8,1.5,2.1,1.5,3.8s-0.5,3-1.5,3.8c-1,0.8-2.5,1.2-4.6,1.2h-1.9V23h-3.1V9h4.9
					C553.2,9,554.7,9.4,555.7,10.3z M553.4,15.8c0.4-0.4,0.6-1,0.6-1.8c0-0.8-0.2-1.4-0.7-1.7c-0.5-0.3-1.2-0.5-2.3-0.5h-1.8v4.7
					h2.1C552.4,16.4,553.1,16.2,553.4,15.8z"/>
                    <path class="st2" d="M570.7,9h3.1v14h-3.1V9z"/>
                </g>
                <g class="st1">
                    <path class="st2" d="M590.1,9h3.1v14h-3.1l-6.7-8.8V23h-3.1V9h2.9l6.9,9V9z"/>
                </g>
                <g id="Line-Copy-3">
                    <g>

                        <linearGradient id="path-4_3_" gradientUnits="userSpaceOnUse" x1="182.8744" y1="78" x2="182.8744" y2="78" gradientTransform="matrix(294.1377 0 0 -1 -52958.8359 117.5)">
                            <stop offset="0" style="stop-color:#152E4A"/>
                            <stop offset="1" style="stop-color:#000000;stop-opacity:0.5"/>
                        </linearGradient>
                        <path id="path-4" class="st3" d="M978.5,39.5H684.4"/>
                    </g>
                    <g>

                        <linearGradient id="path-4_4_" gradientUnits="userSpaceOnUse" x1="182.8744" y1="78" x2="182.8744" y2="78" gradientTransform="matrix(294.1377 0 0 -1 -52958.8359 117.5)">
                            <stop offset="0" style="stop-color:#FFFFFF;stop-opacity:0.5"/>
                            <stop offset="1" style="stop-color:#000000;stop-opacity:0.5"/>
                        </linearGradient>
                        <path id="path-4_1_" class="st4" d="M978.5,39.5H684.4"/>
                    </g>
                    <g>
                        <path id="path-4_2_" class="st5" d="M978.5,39.5H684.4"/>
                    </g>
                </g>
                <g id="Line">
                    <g>

                        <linearGradient id="path-5_3_" gradientUnits="userSpaceOnUse" x1="182.8744" y1="78" x2="182.8744" y2="78" gradientTransform="matrix(294.1377 0 0 -1 -53642.8398 116.5)">
                            <stop offset="0" style="stop-color:#152E4A"/>
                            <stop offset="1" style="stop-color:#000000;stop-opacity:0.5"/>
                        </linearGradient>
                        <path id="path-5" class="st6" d="M294.5,38.5H0.4"/>
                    </g>
                    <g>

                        <linearGradient id="path-5_4_" gradientUnits="userSpaceOnUse" x1="182.8744" y1="78" x2="182.8744" y2="78" gradientTransform="matrix(294.1377 0 0 -1 -53642.8398 116.5)">
                            <stop offset="0" style="stop-color:#FFFFFF;stop-opacity:0.5"/>
                            <stop offset="1" style="stop-color:#000000;stop-opacity:0.5"/>
                        </linearGradient>
                        <path id="path-5_1_" class="st7" d="M294.5,38.5H0.4"/>
                    </g>
                    <g>
                        <path id="path-5_2_" class="st5" d="M294.5,38.5H0.4"/>
                    </g>
                </g>
            </g>
        </g>
    </g>
</svg>